<?xml version="1.0" encoding="UTF-8" standalone="no"?><!DOCTYPE svg PUBLIC "-//W3C//DTD SVG 1.1//EN" "http://www.w3.org/Graphics/SVG/1.1/DTD/svg11.dtd"><svg width="100%" height="100%" viewBox="0 0 128 128" version="1.1" xmlns="http://www.w3.org/2000/svg" xmlns:xlink="http://www.w3.org/1999/xlink" xml:space="preserve" xmlns:serif="http://www.serif.com/" style="fill-rule:evenodd;clip-rule:evenodd;"><path d="M126,16c0,-7.727 -6.273,-14 -14,-14l-96,0c-7.727,0 -14,6.273 -14,14l0,96c0,7.727 6.273,14 14,14l96,0c7.727,0 14,-6.273 14,-14l0,-96Z" style="fill:#762942;stroke:#212532;stroke-width:4px;"/><g><g><path d="M22.927,80.295l0,3.333c27.405,23.836 54.809,23.836 82.214,0l0,-3.333l-82.214,0Z" style="fill:#fff;fill-rule:nonzero;"/><path d="M22.927,80.295l15.352,1.414c0.808,0.067 1.313,0.539 1.515,1.414l0.404,6.767l13.332,1.01l0.808,-6.161c0.135,-0.741 0.64,-1.246 1.515,-1.515l16.362,0c0.875,0.269 1.38,0.774 1.515,1.515l0.808,6.161l13.332,-1.01l0.404,-6.767c0.202,-0.875 0.707,-1.347 1.515,-1.414l15.352,-1.414l0,-24.846c2.02,-2.626 3.905,-5.353 5.656,-8.181c-2.357,-3.973 -5.151,-7.609 -8.383,-10.908c-2.895,1.347 -5.656,2.929 -8.282,4.747c-2.693,-2.491 -5.656,-4.646 -8.888,-6.464c0.471,-3.434 0.741,-6.868 0.808,-10.302c-3.973,-1.885 -8.114,-3.299 -12.423,-4.242c-1.751,2.895 -3.299,5.892 -4.646,8.989c-3.299,-0.471 -6.599,-0.471 -9.898,0c-1.347,-3.097 -2.895,-6.094 -4.646,-8.989c-4.309,0.943 -8.45,2.357 -12.423,4.242c0.067,3.434 0.337,6.868 0.808,10.302c-3.232,1.818 -6.195,3.973 -8.888,6.464c-2.626,-1.818 -5.387,-3.4 -8.282,-4.747c-3.232,3.299 -6.026,6.935 -8.383,10.908c1.751,2.828 3.636,5.555 5.656,8.181l-0,24.846Zm-0,3.333l-0,3.939c-0,27.876 82.113,27.876 82.113,0l-0,-3.939l-13.534,1.212l-0.505,6.969c-0.135,0.673 -0.606,1.111 -1.414,1.313l-16.362,1.111c-0.808,-0 -1.347,-0.37 -1.616,-1.111l-1.01,-6.565l-13.13,-0l-1.01,6.565c-0.269,0.741 -0.808,1.111 -1.616,1.111l-16.362,-1.111c-0.808,-0.202 -1.279,-0.64 -1.414,-1.313l-0.505,-6.969l-13.635,-1.212Z" style="fill:#bf476e;fill-rule:nonzero;"/><path d="M61.105,72.922c0.303,3.434 5.555,3.434 5.858,0l0,-8.686c-0.303,-3.434 -5.555,-3.434 -5.858,0l0,8.686Z" style="fill:#fff;fill-rule:nonzero;"/><circle cx="85.547" cy="65.448" r="9.09" style="fill:#fff;"/><circle cx="42.521" cy="65.448" r="9.09" style="fill:#fff;"/></g><g><circle cx="43.329" cy="66.054" r="6.06" style="fill:#414042;"/><circle cx="84.739" cy="66.054" r="6.06" style="fill:#414042;"/></g></g><path d="M32.226,51.673c6.074,1.642 12.204,3.208 18.406,4.299c2.174,0.382 4.25,-1.073 4.632,-3.247c0.382,-2.174 -1.072,-4.25 -3.247,-4.632c-5.965,-1.05 -11.86,-2.563 -17.702,-4.143c-2.131,-0.576 -4.329,0.686 -4.906,2.818c-0.576,2.131 0.686,4.329 2.817,4.905Z"/><path d="M91.218,45.624c-5.316,2.209 -10.371,5.035 -15.927,6.621c-2.123,0.607 -3.354,2.822 -2.748,4.945c0.606,2.123 2.822,3.354 4.945,2.748c5.853,-1.671 11.199,-4.6 16.8,-6.927c2.038,-0.847 3.006,-3.189 2.159,-5.228c-0.847,-2.039 -3.19,-3.006 -5.229,-2.159Z"/></svg>